<mxfile host="app.diagrams.net" agent="Mozilla/5.0 (Windows NT 10.0; Win64; x64) AppleWebKit/537.36 (KHTML, like Gecko) Chrome/137.0.0.0 Safari/537.36" version="27.1.6">
  <diagram name="第 1 页" id="56BlYWJSqFPztJBqIIqX">
    <mxGraphModel dx="1426" dy="743" grid="1" gridSize="10" guides="1" tooltips="1" connect="1" arrows="1" fold="1" page="1" pageScale="1" pageWidth="1654" pageHeight="1169" math="1" shadow="0">
      <root>
        <mxCell id="0" />
        <mxCell id="1" parent="0" />
        <mxCell id="acMKYbe6vQJ9O9eNH2sJ-32" style="rounded=0;orthogonalLoop=1;jettySize=auto;html=1;exitX=0.951;exitY=0.724;exitDx=0;exitDy=0;entryX=0;entryY=0.5;entryDx=0;entryDy=0;exitPerimeter=0;fontSize=25;" parent="1" source="acMKYbe6vQJ9O9eNH2sJ-1" target="acMKYbe6vQJ9O9eNH2sJ-3" edge="1">
          <mxGeometry relative="1" as="geometry" />
        </mxCell>
        <mxCell id="acMKYbe6vQJ9O9eNH2sJ-1" value="&lt;font&gt;$$I$$&lt;/font&gt;" style="ellipse;whiteSpace=wrap;html=1;aspect=fixed;fillColor=#ffe6cc;strokeColor=#d79b00;fontSize=25;" parent="1" vertex="1">
          <mxGeometry x="320" y="140" width="80" height="80" as="geometry" />
        </mxCell>
        <mxCell id="acMKYbe6vQJ9O9eNH2sJ-33" style="rounded=0;orthogonalLoop=1;jettySize=auto;html=1;entryX=0;entryY=0.5;entryDx=0;entryDy=0;fontSize=25;" parent="1" source="acMKYbe6vQJ9O9eNH2sJ-2" target="acMKYbe6vQJ9O9eNH2sJ-3" edge="1">
          <mxGeometry relative="1" as="geometry" />
        </mxCell>
        <mxCell id="acMKYbe6vQJ9O9eNH2sJ-2" value="&lt;span&gt;$$U$$&lt;/span&gt;" style="ellipse;whiteSpace=wrap;html=1;aspect=fixed;fillColor=#dae8fc;strokeColor=#6c8ebf;fontSize=25;" parent="1" vertex="1">
          <mxGeometry x="320" y="260" width="80" height="80" as="geometry" />
        </mxCell>
        <mxCell id="acMKYbe6vQJ9O9eNH2sJ-34" style="edgeStyle=orthogonalEdgeStyle;rounded=0;orthogonalLoop=1;jettySize=auto;html=1;exitX=1;exitY=0.5;exitDx=0;exitDy=0;fontSize=25;" parent="1" source="acMKYbe6vQJ9O9eNH2sJ-3" target="acMKYbe6vQJ9O9eNH2sJ-4" edge="1">
          <mxGeometry relative="1" as="geometry" />
        </mxCell>
        <mxCell id="acMKYbe6vQJ9O9eNH2sJ-3" value="&lt;font&gt;\(K\)&lt;/font&gt;" style="ellipse;whiteSpace=wrap;html=1;aspect=fixed;fillColor=#e1d5e7;strokeColor=#9673a6;fontSize=25;" parent="1" vertex="1">
          <mxGeometry x="440" y="200" width="80" height="80" as="geometry" />
        </mxCell>
        <mxCell id="acMKYbe6vQJ9O9eNH2sJ-4" value="&lt;span&gt;$$Y$$&lt;/span&gt;" style="ellipse;whiteSpace=wrap;html=1;aspect=fixed;fillColor=#f8cecc;strokeColor=#b85450;fontSize=25;" parent="1" vertex="1">
          <mxGeometry x="560" y="200" width="80" height="80" as="geometry" />
        </mxCell>
        <mxCell id="acMKYbe6vQJ9O9eNH2sJ-35" value="经典用户-项目匹配因果图。K：匹配因素。Y: 排名分（交互概率）" style="text;whiteSpace=wrap;fontSize=18;" parent="1" vertex="1">
          <mxGeometry x="990" y="420" width="550" height="40" as="geometry" />
        </mxCell>
        <mxCell id="acMKYbe6vQJ9O9eNH2sJ-43" value="结合项目流行度" style="text;whiteSpace=wrap;fontSize=18;" parent="1" vertex="1">
          <mxGeometry x="980" y="640" width="130" height="40" as="geometry" />
        </mxCell>
        <mxCell id="acMKYbe6vQJ9O9eNH2sJ-46" style="rounded=0;orthogonalLoop=1;jettySize=auto;html=1;exitX=0.951;exitY=0.724;exitDx=0;exitDy=0;entryX=0;entryY=0.5;entryDx=0;entryDy=0;exitPerimeter=0;fontSize=25;" parent="1" source="acMKYbe6vQJ9O9eNH2sJ-47" target="acMKYbe6vQJ9O9eNH2sJ-51" edge="1">
          <mxGeometry relative="1" as="geometry" />
        </mxCell>
        <mxCell id="acMKYbe6vQJ9O9eNH2sJ-53" style="rounded=0;orthogonalLoop=1;jettySize=auto;html=1;exitX=1;exitY=0.5;exitDx=0;exitDy=0;entryX=0;entryY=0;entryDx=0;entryDy=0;fontSize=25;" parent="1" source="acMKYbe6vQJ9O9eNH2sJ-47" target="acMKYbe6vQJ9O9eNH2sJ-52" edge="1">
          <mxGeometry relative="1" as="geometry" />
        </mxCell>
        <mxCell id="acMKYbe6vQJ9O9eNH2sJ-47" value="&lt;font&gt;$$I$$&lt;/font&gt;" style="ellipse;whiteSpace=wrap;html=1;aspect=fixed;fillColor=#ffe6cc;strokeColor=#d79b00;fontSize=25;" parent="1" vertex="1">
          <mxGeometry x="670" y="135" width="80" height="80" as="geometry" />
        </mxCell>
        <mxCell id="acMKYbe6vQJ9O9eNH2sJ-48" style="rounded=0;orthogonalLoop=1;jettySize=auto;html=1;entryX=0;entryY=0.5;entryDx=0;entryDy=0;fontSize=25;" parent="1" source="acMKYbe6vQJ9O9eNH2sJ-49" target="acMKYbe6vQJ9O9eNH2sJ-51" edge="1">
          <mxGeometry relative="1" as="geometry" />
        </mxCell>
        <mxCell id="acMKYbe6vQJ9O9eNH2sJ-49" value="&lt;span&gt;$$U$$&lt;/span&gt;" style="ellipse;whiteSpace=wrap;html=1;aspect=fixed;fillColor=#dae8fc;strokeColor=#6c8ebf;fontSize=25;" parent="1" vertex="1">
          <mxGeometry x="670" y="260" width="80" height="80" as="geometry" />
        </mxCell>
        <mxCell id="acMKYbe6vQJ9O9eNH2sJ-50" style="edgeStyle=orthogonalEdgeStyle;rounded=0;orthogonalLoop=1;jettySize=auto;html=1;exitX=1;exitY=0.5;exitDx=0;exitDy=0;fontSize=25;" parent="1" source="acMKYbe6vQJ9O9eNH2sJ-51" target="acMKYbe6vQJ9O9eNH2sJ-52" edge="1">
          <mxGeometry relative="1" as="geometry" />
        </mxCell>
        <mxCell id="acMKYbe6vQJ9O9eNH2sJ-51" value="&lt;font&gt;\(K\)&lt;/font&gt;" style="ellipse;whiteSpace=wrap;html=1;aspect=fixed;fillColor=#e1d5e7;strokeColor=#9673a6;fontSize=25;" parent="1" vertex="1">
          <mxGeometry x="790" y="195" width="80" height="80" as="geometry" />
        </mxCell>
        <mxCell id="acMKYbe6vQJ9O9eNH2sJ-52" value="&lt;span&gt;$$Y$$&lt;/span&gt;" style="ellipse;whiteSpace=wrap;html=1;aspect=fixed;fillColor=#f8cecc;strokeColor=#b85450;fontSize=25;" parent="1" vertex="1">
          <mxGeometry x="910" y="195" width="80" height="80" as="geometry" />
        </mxCell>
        <mxCell id="acMKYbe6vQJ9O9eNH2sJ-69" style="rounded=0;orthogonalLoop=1;jettySize=auto;html=1;exitX=0.951;exitY=0.724;exitDx=0;exitDy=0;entryX=0;entryY=0.5;entryDx=0;entryDy=0;exitPerimeter=0;fontSize=25;" parent="1" source="acMKYbe6vQJ9O9eNH2sJ-71" target="acMKYbe6vQJ9O9eNH2sJ-76" edge="1">
          <mxGeometry relative="1" as="geometry" />
        </mxCell>
        <mxCell id="acMKYbe6vQJ9O9eNH2sJ-92" style="rounded=0;orthogonalLoop=1;jettySize=auto;html=1;exitX=1;exitY=0.5;exitDx=0;exitDy=0;entryX=0.054;entryY=0.275;entryDx=0;entryDy=0;entryPerimeter=0;dashed=1;fontSize=25;" parent="1" source="acMKYbe6vQJ9O9eNH2sJ-71" target="acMKYbe6vQJ9O9eNH2sJ-77" edge="1">
          <mxGeometry relative="1" as="geometry" />
        </mxCell>
        <mxCell id="acMKYbe6vQJ9O9eNH2sJ-71" value="&lt;font&gt;$$I$$&lt;/font&gt;" style="ellipse;whiteSpace=wrap;html=1;aspect=fixed;fillColor=#ffe6cc;strokeColor=#d79b00;fontSize=25;" parent="1" vertex="1">
          <mxGeometry x="320" y="440" width="80" height="80" as="geometry" />
        </mxCell>
        <mxCell id="acMKYbe6vQJ9O9eNH2sJ-72" style="rounded=0;orthogonalLoop=1;jettySize=auto;html=1;entryX=0;entryY=0.5;entryDx=0;entryDy=0;fontSize=25;" parent="1" source="acMKYbe6vQJ9O9eNH2sJ-74" target="acMKYbe6vQJ9O9eNH2sJ-76" edge="1">
          <mxGeometry relative="1" as="geometry" />
        </mxCell>
        <mxCell id="acMKYbe6vQJ9O9eNH2sJ-74" value="&lt;span&gt;$$U$$&lt;/span&gt;" style="ellipse;whiteSpace=wrap;html=1;aspect=fixed;fillColor=#dae8fc;strokeColor=#6c8ebf;fontSize=25;" parent="1" vertex="1">
          <mxGeometry x="320" y="640" width="80" height="80" as="geometry" />
        </mxCell>
        <mxCell id="acMKYbe6vQJ9O9eNH2sJ-75" style="edgeStyle=orthogonalEdgeStyle;rounded=0;orthogonalLoop=1;jettySize=auto;html=1;exitX=1;exitY=0.5;exitDx=0;exitDy=0;fontSize=25;" parent="1" source="acMKYbe6vQJ9O9eNH2sJ-76" target="acMKYbe6vQJ9O9eNH2sJ-77" edge="1">
          <mxGeometry relative="1" as="geometry" />
        </mxCell>
        <mxCell id="acMKYbe6vQJ9O9eNH2sJ-76" value="&lt;font&gt;\(K\)&lt;/font&gt;" style="ellipse;whiteSpace=wrap;html=1;aspect=fixed;fillColor=#e1d5e7;strokeColor=#9673a6;fontSize=25;" parent="1" vertex="1">
          <mxGeometry x="440" y="560" width="80" height="80" as="geometry" />
        </mxCell>
        <mxCell id="acMKYbe6vQJ9O9eNH2sJ-77" value="&lt;span&gt;$$Y$$&lt;/span&gt;" style="ellipse;whiteSpace=wrap;html=1;aspect=fixed;fillColor=#f8cecc;strokeColor=#b85450;fontSize=25;" parent="1" vertex="1">
          <mxGeometry x="560" y="560" width="80" height="80" as="geometry" />
        </mxCell>
        <mxCell id="acMKYbe6vQJ9O9eNH2sJ-90" style="rounded=0;orthogonalLoop=1;jettySize=auto;html=1;exitX=1;exitY=0.5;exitDx=0;exitDy=0;entryX=0;entryY=0.5;entryDx=0;entryDy=0;fontSize=25;" parent="1" source="acMKYbe6vQJ9O9eNH2sJ-78" target="acMKYbe6vQJ9O9eNH2sJ-76" edge="1">
          <mxGeometry relative="1" as="geometry" />
        </mxCell>
        <mxCell id="acMKYbe6vQJ9O9eNH2sJ-78" value="&lt;font&gt;$$I^*$$&lt;/font&gt;" style="ellipse;whiteSpace=wrap;html=1;aspect=fixed;fillColor=#fff2cc;strokeColor=#d6b656;fontSize=25;" parent="1" vertex="1">
          <mxGeometry x="320" y="530" width="80" height="80" as="geometry" />
        </mxCell>
        <mxCell id="Mdq6Gw4Iz_iuoYK7gJNK-2" value="\(I^*\): 模拟长尾项目" style="text;whiteSpace=wrap;fontSize=18;" parent="1" vertex="1">
          <mxGeometry x="1250" y="1100" width="170" height="40" as="geometry" />
        </mxCell>
        <mxCell id="7c5HfkJA_0XSIlpQ0Qkd-1" value="" style="shape=umlDestroy;whiteSpace=wrap;html=1;strokeWidth=3;targetShapes=umlLifeline;fillColor=#e51400;strokeColor=#B20000;fontColor=#ffffff;fontSize=25;" parent="1" vertex="1">
          <mxGeometry x="465" y="510" width="30" height="30" as="geometry" />
        </mxCell>
        <mxCell id="soInT_jy2BydCNeBa6Lg-12" style="rounded=0;orthogonalLoop=1;jettySize=auto;html=1;entryX=0;entryY=0.5;entryDx=0;entryDy=0;fontSize=25;exitX=1;exitY=0.5;exitDx=0;exitDy=0;" edge="1" parent="1" source="soInT_jy2BydCNeBa6Lg-13" target="soInT_jy2BydCNeBa6Lg-17">
          <mxGeometry relative="1" as="geometry" />
        </mxCell>
        <mxCell id="soInT_jy2BydCNeBa6Lg-34" style="edgeStyle=orthogonalEdgeStyle;rounded=0;orthogonalLoop=1;jettySize=auto;html=1;exitX=0.5;exitY=0;exitDx=0;exitDy=0;entryX=0.5;entryY=0;entryDx=0;entryDy=0;curved=1;dashed=1;" edge="1" parent="1" source="soInT_jy2BydCNeBa6Lg-13" target="soInT_jy2BydCNeBa6Lg-25">
          <mxGeometry relative="1" as="geometry">
            <Array as="points">
              <mxPoint x="1720" y="220" />
              <mxPoint x="2200" y="220" />
            </Array>
          </mxGeometry>
        </mxCell>
        <mxCell id="soInT_jy2BydCNeBa6Lg-13" value="&lt;font&gt;$$I_{t_1}$$&lt;/font&gt;" style="ellipse;whiteSpace=wrap;html=1;aspect=fixed;fillColor=#ffe6cc;strokeColor=#d79b00;fontSize=25;" vertex="1" parent="1">
          <mxGeometry x="1680" y="280" width="80" height="80" as="geometry" />
        </mxCell>
        <mxCell id="soInT_jy2BydCNeBa6Lg-42" style="rounded=0;orthogonalLoop=1;jettySize=auto;html=1;exitX=0.5;exitY=0;exitDx=0;exitDy=0;entryX=0.5;entryY=1;entryDx=0;entryDy=0;" edge="1" parent="1" source="soInT_jy2BydCNeBa6Lg-15" target="soInT_jy2BydCNeBa6Lg-17">
          <mxGeometry relative="1" as="geometry" />
        </mxCell>
        <mxCell id="soInT_jy2BydCNeBa6Lg-43" style="edgeStyle=orthogonalEdgeStyle;rounded=0;orthogonalLoop=1;jettySize=auto;html=1;exitX=0.5;exitY=0;exitDx=0;exitDy=0;entryX=0.5;entryY=1;entryDx=0;entryDy=0;" edge="1" parent="1" source="soInT_jy2BydCNeBa6Lg-15" target="soInT_jy2BydCNeBa6Lg-25">
          <mxGeometry relative="1" as="geometry" />
        </mxCell>
        <mxCell id="soInT_jy2BydCNeBa6Lg-44" style="rounded=0;orthogonalLoop=1;jettySize=auto;html=1;exitX=0.5;exitY=0;exitDx=0;exitDy=0;entryX=0.5;entryY=1;entryDx=0;entryDy=0;" edge="1" parent="1" source="soInT_jy2BydCNeBa6Lg-15" target="soInT_jy2BydCNeBa6Lg-30">
          <mxGeometry relative="1" as="geometry" />
        </mxCell>
        <mxCell id="soInT_jy2BydCNeBa6Lg-15" value="&lt;span&gt;$$U$$&lt;/span&gt;" style="ellipse;whiteSpace=wrap;html=1;aspect=fixed;fillColor=#dae8fc;strokeColor=#6c8ebf;fontSize=25;" vertex="1" parent="1">
          <mxGeometry x="2160" y="420" width="80" height="80" as="geometry" />
        </mxCell>
        <mxCell id="soInT_jy2BydCNeBa6Lg-31" style="edgeStyle=orthogonalEdgeStyle;rounded=0;orthogonalLoop=1;jettySize=auto;html=1;exitX=1;exitY=0.5;exitDx=0;exitDy=0;" edge="1" parent="1" source="soInT_jy2BydCNeBa6Lg-17" target="soInT_jy2BydCNeBa6Lg-21">
          <mxGeometry relative="1" as="geometry" />
        </mxCell>
        <mxCell id="soInT_jy2BydCNeBa6Lg-17" value="&lt;font&gt;\(K_{t_1}\)&lt;/font&gt;" style="ellipse;whiteSpace=wrap;html=1;aspect=fixed;fillColor=#e1d5e7;strokeColor=#9673a6;fontSize=25;" vertex="1" parent="1">
          <mxGeometry x="1840" y="280" width="80" height="80" as="geometry" />
        </mxCell>
        <mxCell id="soInT_jy2BydCNeBa6Lg-27" style="edgeStyle=orthogonalEdgeStyle;rounded=0;orthogonalLoop=1;jettySize=auto;html=1;exitX=1;exitY=0.5;exitDx=0;exitDy=0;entryX=0;entryY=0.5;entryDx=0;entryDy=0;" edge="1" parent="1" source="soInT_jy2BydCNeBa6Lg-21" target="soInT_jy2BydCNeBa6Lg-25">
          <mxGeometry relative="1" as="geometry" />
        </mxCell>
        <mxCell id="soInT_jy2BydCNeBa6Lg-35" style="edgeStyle=orthogonalEdgeStyle;rounded=0;orthogonalLoop=1;jettySize=auto;html=1;exitX=0.5;exitY=0;exitDx=0;exitDy=0;entryX=0.5;entryY=0;entryDx=0;entryDy=0;curved=1;dashed=1;" edge="1" parent="1" source="soInT_jy2BydCNeBa6Lg-21" target="soInT_jy2BydCNeBa6Lg-30">
          <mxGeometry relative="1" as="geometry">
            <Array as="points">
              <mxPoint x="2040" y="220" />
              <mxPoint x="2520" y="220" />
            </Array>
          </mxGeometry>
        </mxCell>
        <mxCell id="soInT_jy2BydCNeBa6Lg-21" value="&lt;font&gt;$$I_{t_2}$$&lt;/font&gt;" style="ellipse;whiteSpace=wrap;html=1;aspect=fixed;fillColor=#ffe6cc;strokeColor=#d79b00;fontSize=25;" vertex="1" parent="1">
          <mxGeometry x="2000" y="280" width="80" height="80" as="geometry" />
        </mxCell>
        <mxCell id="soInT_jy2BydCNeBa6Lg-32" style="edgeStyle=orthogonalEdgeStyle;rounded=0;orthogonalLoop=1;jettySize=auto;html=1;exitX=1;exitY=0.5;exitDx=0;exitDy=0;" edge="1" parent="1" source="soInT_jy2BydCNeBa6Lg-25" target="soInT_jy2BydCNeBa6Lg-29">
          <mxGeometry relative="1" as="geometry" />
        </mxCell>
        <mxCell id="soInT_jy2BydCNeBa6Lg-25" value="&lt;font&gt;\(K_{t_2}\)&lt;/font&gt;" style="ellipse;whiteSpace=wrap;html=1;aspect=fixed;fillColor=#e1d5e7;strokeColor=#9673a6;fontSize=25;" vertex="1" parent="1">
          <mxGeometry x="2160" y="280" width="80" height="80" as="geometry" />
        </mxCell>
        <mxCell id="soInT_jy2BydCNeBa6Lg-26" value="&lt;span&gt;$$Y$$&lt;/span&gt;" style="ellipse;whiteSpace=wrap;html=1;aspect=fixed;fillColor=#f8cecc;strokeColor=#b85450;fontSize=25;" vertex="1" parent="1">
          <mxGeometry x="2640" y="280" width="80" height="80" as="geometry" />
        </mxCell>
        <mxCell id="soInT_jy2BydCNeBa6Lg-28" style="edgeStyle=orthogonalEdgeStyle;rounded=0;orthogonalLoop=1;jettySize=auto;html=1;exitX=1;exitY=0.5;exitDx=0;exitDy=0;entryX=0;entryY=0.5;entryDx=0;entryDy=0;" edge="1" parent="1" source="soInT_jy2BydCNeBa6Lg-29" target="soInT_jy2BydCNeBa6Lg-30">
          <mxGeometry relative="1" as="geometry" />
        </mxCell>
        <mxCell id="soInT_jy2BydCNeBa6Lg-41" style="edgeStyle=orthogonalEdgeStyle;rounded=0;orthogonalLoop=1;jettySize=auto;html=1;exitX=0.5;exitY=0;exitDx=0;exitDy=0;entryX=0.5;entryY=0;entryDx=0;entryDy=0;curved=1;dashed=1;" edge="1" parent="1" source="soInT_jy2BydCNeBa6Lg-29" target="soInT_jy2BydCNeBa6Lg-26">
          <mxGeometry relative="1" as="geometry">
            <Array as="points">
              <mxPoint x="2360" y="230" />
              <mxPoint x="2680" y="230" />
            </Array>
          </mxGeometry>
        </mxCell>
        <mxCell id="soInT_jy2BydCNeBa6Lg-29" value="&lt;font&gt;$$I_{t_3}$$&lt;/font&gt;" style="ellipse;whiteSpace=wrap;html=1;aspect=fixed;fillColor=#ffe6cc;strokeColor=#d79b00;fontSize=25;" vertex="1" parent="1">
          <mxGeometry x="2320" y="280" width="80" height="80" as="geometry" />
        </mxCell>
        <mxCell id="soInT_jy2BydCNeBa6Lg-40" style="edgeStyle=orthogonalEdgeStyle;rounded=0;orthogonalLoop=1;jettySize=auto;html=1;exitX=1;exitY=0.5;exitDx=0;exitDy=0;entryX=0;entryY=0.5;entryDx=0;entryDy=0;" edge="1" parent="1" source="soInT_jy2BydCNeBa6Lg-30" target="soInT_jy2BydCNeBa6Lg-26">
          <mxGeometry relative="1" as="geometry" />
        </mxCell>
        <mxCell id="soInT_jy2BydCNeBa6Lg-30" value="&lt;font&gt;\(K_{t_3}\)&lt;/font&gt;" style="ellipse;whiteSpace=wrap;html=1;aspect=fixed;fillColor=#e1d5e7;strokeColor=#9673a6;fontSize=25;" vertex="1" parent="1">
          <mxGeometry x="2480" y="280" width="80" height="80" as="geometry" />
        </mxCell>
        <mxCell id="soInT_jy2BydCNeBa6Lg-58" style="rounded=0;orthogonalLoop=1;jettySize=auto;html=1;exitX=1;exitY=0.5;exitDx=0;exitDy=0;entryX=0;entryY=0.5;entryDx=0;entryDy=0;" edge="1" parent="1" source="soInT_jy2BydCNeBa6Lg-47" target="soInT_jy2BydCNeBa6Lg-53">
          <mxGeometry relative="1" as="geometry" />
        </mxCell>
        <mxCell id="soInT_jy2BydCNeBa6Lg-68" style="rounded=0;orthogonalLoop=1;jettySize=auto;html=1;exitX=1;exitY=0.5;exitDx=0;exitDy=0;entryX=0;entryY=0;entryDx=0;entryDy=0;dashed=1;" edge="1" parent="1" source="soInT_jy2BydCNeBa6Lg-47" target="soInT_jy2BydCNeBa6Lg-54">
          <mxGeometry relative="1" as="geometry" />
        </mxCell>
        <mxCell id="soInT_jy2BydCNeBa6Lg-47" value="&lt;font&gt;$$I_{t_1}$$&lt;/font&gt;" style="ellipse;whiteSpace=wrap;html=1;aspect=fixed;fillColor=#ffe6cc;strokeColor=#d79b00;fontSize=25;" vertex="1" parent="1">
          <mxGeometry x="1960" y="560" width="80" height="80" as="geometry" />
        </mxCell>
        <mxCell id="soInT_jy2BydCNeBa6Lg-52" value="&lt;span&gt;$$Y$$&lt;/span&gt;" style="ellipse;whiteSpace=wrap;html=1;aspect=fixed;fillColor=#f8cecc;strokeColor=#b85450;fontSize=25;" vertex="1" parent="1">
          <mxGeometry x="2120" y="920" width="80" height="80" as="geometry" />
        </mxCell>
        <mxCell id="soInT_jy2BydCNeBa6Lg-63" style="edgeStyle=orthogonalEdgeStyle;rounded=0;orthogonalLoop=1;jettySize=auto;html=1;exitX=0.5;exitY=1;exitDx=0;exitDy=0;entryX=0.5;entryY=0;entryDx=0;entryDy=0;" edge="1" parent="1" source="soInT_jy2BydCNeBa6Lg-53" target="soInT_jy2BydCNeBa6Lg-54">
          <mxGeometry relative="1" as="geometry" />
        </mxCell>
        <mxCell id="soInT_jy2BydCNeBa6Lg-53" value="&lt;font&gt;\(K_{t_1}\)&lt;/font&gt;" style="ellipse;whiteSpace=wrap;html=1;aspect=fixed;fillColor=#e1d5e7;strokeColor=#9673a6;fontSize=25;" vertex="1" parent="1">
          <mxGeometry x="2120" y="560" width="80" height="80" as="geometry" />
        </mxCell>
        <mxCell id="soInT_jy2BydCNeBa6Lg-65" style="edgeStyle=orthogonalEdgeStyle;rounded=0;orthogonalLoop=1;jettySize=auto;html=1;exitX=0.5;exitY=1;exitDx=0;exitDy=0;" edge="1" parent="1" source="soInT_jy2BydCNeBa6Lg-54" target="soInT_jy2BydCNeBa6Lg-55">
          <mxGeometry relative="1" as="geometry" />
        </mxCell>
        <mxCell id="soInT_jy2BydCNeBa6Lg-54" value="&lt;font&gt;\(K_{t_2}\)&lt;/font&gt;" style="ellipse;whiteSpace=wrap;html=1;aspect=fixed;fillColor=#e1d5e7;strokeColor=#9673a6;fontSize=25;" vertex="1" parent="1">
          <mxGeometry x="2120" y="680" width="80" height="80" as="geometry" />
        </mxCell>
        <mxCell id="soInT_jy2BydCNeBa6Lg-75" style="edgeStyle=orthogonalEdgeStyle;rounded=0;orthogonalLoop=1;jettySize=auto;html=1;exitX=0.5;exitY=1;exitDx=0;exitDy=0;entryX=0.5;entryY=0;entryDx=0;entryDy=0;" edge="1" parent="1" source="soInT_jy2BydCNeBa6Lg-55" target="soInT_jy2BydCNeBa6Lg-52">
          <mxGeometry relative="1" as="geometry" />
        </mxCell>
        <mxCell id="soInT_jy2BydCNeBa6Lg-55" value="&lt;font&gt;\(K_{t_3}\)&lt;/font&gt;" style="ellipse;whiteSpace=wrap;html=1;aspect=fixed;fillColor=#e1d5e7;strokeColor=#9673a6;fontSize=25;" vertex="1" parent="1">
          <mxGeometry x="2120" y="800" width="80" height="80" as="geometry" />
        </mxCell>
        <mxCell id="soInT_jy2BydCNeBa6Lg-64" style="edgeStyle=orthogonalEdgeStyle;rounded=0;orthogonalLoop=1;jettySize=auto;html=1;exitX=1;exitY=0.5;exitDx=0;exitDy=0;entryX=0;entryY=0.5;entryDx=0;entryDy=0;" edge="1" parent="1" source="soInT_jy2BydCNeBa6Lg-61" target="soInT_jy2BydCNeBa6Lg-54">
          <mxGeometry relative="1" as="geometry" />
        </mxCell>
        <mxCell id="soInT_jy2BydCNeBa6Lg-69" style="rounded=0;orthogonalLoop=1;jettySize=auto;html=1;exitX=1;exitY=0.5;exitDx=0;exitDy=0;entryX=0;entryY=0;entryDx=0;entryDy=0;dashed=1;" edge="1" parent="1" source="soInT_jy2BydCNeBa6Lg-61" target="soInT_jy2BydCNeBa6Lg-55">
          <mxGeometry relative="1" as="geometry" />
        </mxCell>
        <mxCell id="soInT_jy2BydCNeBa6Lg-61" value="&lt;font&gt;$$I_{t_2}$$&lt;/font&gt;" style="ellipse;whiteSpace=wrap;html=1;aspect=fixed;fillColor=#ffe6cc;strokeColor=#d79b00;fontSize=25;" vertex="1" parent="1">
          <mxGeometry x="1960" y="680" width="80" height="80" as="geometry" />
        </mxCell>
        <mxCell id="soInT_jy2BydCNeBa6Lg-67" style="edgeStyle=orthogonalEdgeStyle;rounded=0;orthogonalLoop=1;jettySize=auto;html=1;exitX=1;exitY=0.5;exitDx=0;exitDy=0;" edge="1" parent="1" source="soInT_jy2BydCNeBa6Lg-66" target="soInT_jy2BydCNeBa6Lg-55">
          <mxGeometry relative="1" as="geometry" />
        </mxCell>
        <mxCell id="soInT_jy2BydCNeBa6Lg-76" style="rounded=0;orthogonalLoop=1;jettySize=auto;html=1;exitX=1;exitY=0.5;exitDx=0;exitDy=0;entryX=0;entryY=0;entryDx=0;entryDy=0;dashed=1;" edge="1" parent="1" source="soInT_jy2BydCNeBa6Lg-66" target="soInT_jy2BydCNeBa6Lg-52">
          <mxGeometry relative="1" as="geometry" />
        </mxCell>
        <mxCell id="soInT_jy2BydCNeBa6Lg-66" value="&lt;font&gt;$$I_{t_3}$$&lt;/font&gt;" style="ellipse;whiteSpace=wrap;html=1;aspect=fixed;fillColor=#ffe6cc;strokeColor=#d79b00;fontSize=25;" vertex="1" parent="1">
          <mxGeometry x="1960" y="800" width="80" height="80" as="geometry" />
        </mxCell>
        <mxCell id="soInT_jy2BydCNeBa6Lg-78" style="rounded=0;orthogonalLoop=1;jettySize=auto;html=1;exitX=0;exitY=0.5;exitDx=0;exitDy=0;entryX=1;entryY=0.5;entryDx=0;entryDy=0;" edge="1" parent="1" source="soInT_jy2BydCNeBa6Lg-77" target="soInT_jy2BydCNeBa6Lg-53">
          <mxGeometry relative="1" as="geometry" />
        </mxCell>
        <mxCell id="soInT_jy2BydCNeBa6Lg-79" style="edgeStyle=orthogonalEdgeStyle;rounded=0;orthogonalLoop=1;jettySize=auto;html=1;exitX=0;exitY=0.5;exitDx=0;exitDy=0;entryX=1;entryY=0.5;entryDx=0;entryDy=0;" edge="1" parent="1" source="soInT_jy2BydCNeBa6Lg-77" target="soInT_jy2BydCNeBa6Lg-54">
          <mxGeometry relative="1" as="geometry" />
        </mxCell>
        <mxCell id="soInT_jy2BydCNeBa6Lg-80" style="rounded=0;orthogonalLoop=1;jettySize=auto;html=1;exitX=0;exitY=0.5;exitDx=0;exitDy=0;entryX=1;entryY=0.5;entryDx=0;entryDy=0;" edge="1" parent="1" source="soInT_jy2BydCNeBa6Lg-77" target="soInT_jy2BydCNeBa6Lg-55">
          <mxGeometry relative="1" as="geometry" />
        </mxCell>
        <mxCell id="soInT_jy2BydCNeBa6Lg-77" value="&lt;span&gt;$$U$$&lt;/span&gt;" style="ellipse;whiteSpace=wrap;html=1;aspect=fixed;fillColor=#dae8fc;strokeColor=#6c8ebf;fontSize=25;" vertex="1" parent="1">
          <mxGeometry x="2280" y="680" width="80" height="80" as="geometry" />
        </mxCell>
      </root>
    </mxGraphModel>
  </diagram>
</mxfile>
